<?xml version="1.0"?>
<svg xmlns="http://www.w3.org/2000/svg" xmlns:xlink="http://www.w3.org/1999/xlink" xmlns:svgjs="http://svgjs.com/svgjs" version="1.1" width="512" height="512" x="0" y="0" viewBox="0 0 503.85 503.85" style="enable-background:new 0 0 512 512" xml:space="preserve" class=""><g><g xmlns="http://www.w3.org/2000/svg"><g><g><path d="m187.33 41.697c3.271-7.154 3.562-15.153.816-22.525-5.666-15.217-22.656-22.984-37.876-17.32l-37.641 14.024c-11.51 4.286-19.247 15.377-19.247 27.598v162.428c-6.223.034-12.518.877-18.62 2.511-34.136 9.146-55.452 40.681-47.516 70.297 6.461 24.111 30.348 39.63 57.426 39.629 6.18 0 12.529-.809 18.874-2.509 31.24-8.37 48.601-30.522 48.885-62.462v-189.467l18.395-6.853c7.372-2.745 13.233-8.198 16.504-15.351zm-17.899-8.186c-1.085 2.373-3.029 4.181-5.475 5.092l-24.803 9.241c-3.851 1.435-6.406 5.112-6.406 9.222v196.215c-.204 22.846-11.743 37.495-34.297 43.539-23.652 6.337-47.066-4.071-52.193-23.203-5.126-19.132 9.946-39.853 33.599-46.191 7.217-1.934 14.756-2.358 21.806-1.225 2.848.459 5.75-.356 7.944-2.226s3.458-4.608 3.458-7.49v-173.01c.001-4.043 2.585-7.721 6.434-9.154l37.641-14.024c5.047-1.881 10.682.698 12.562 5.744.911 2.444.815 5.097-.27 7.47z" fill="#f06520" data-original="#000000" style="" class=""/><path d="m465.957 131.967c-8.012-5.563-17.948-6.763-27.271-3.29-33.651 12.537-65.685 24.655-96.666 36.373-30.957 11.71-62.966 23.819-96.571 36.338-11.51 4.286-19.247 15.377-19.247 27.598v162.428c-6.223.035-12.518.877-18.62 2.511-34.136 9.146-55.452 40.682-47.516 70.297 6.461 24.111 30.347 39.629 57.426 39.629 6.18 0 12.529-.809 18.874-2.509 31.24-8.37 48.601-30.522 48.885-62.462v-49.082c0-5.435-4.407-9.841-9.841-9.841s-9.841 4.406-9.841 9.841v48.994c-.204 22.846-11.743 37.495-34.297 43.539-23.653 6.337-47.066-4.071-52.193-23.203-5.126-19.131 9.946-39.853 33.599-46.191 7.219-1.934 14.76-2.358 21.805-1.225 2.852.46 5.752-.356 7.945-2.226 2.194-1.87 3.458-4.608 3.458-7.49v-173.011c.001-4.043 2.585-7.721 6.434-9.154 33.651-12.537 65.685-24.655 96.666-36.373 30.957-11.71 62.966-23.819 96.573-36.339 4.371-1.627 7.621-.064 9.17 1.012 2.419 1.68 3.863 4.283 3.863 6.965v211.784c-.204 22.846-11.743 37.495-34.297 43.539-23.653 6.339-47.066-4.071-52.193-23.203-5.126-19.131 9.946-39.853 33.599-46.191 7.218-1.934 14.758-2.358 21.806-1.225 2.849.459 5.75-.356 7.944-2.226s3.458-4.608 3.458-7.49v-135.176c0-3.224-1.579-6.243-4.227-8.083-2.648-1.839-6.03-2.263-9.05-1.14l-153.658 57.245c-3.851 1.435-6.406 5.113-6.406 9.222v49.075c0 5.435 4.407 9.841 9.841 9.841s9.841-4.406 9.841-9.841v-42.24l133.976-49.912v110.427c-6.223.035-12.519.878-18.62 2.512-34.136 9.146-55.452 40.681-47.516 70.296 7.936 29.613 42.161 46.268 76.298 37.12 31.24-8.371 48.601-30.523 48.885-62.462v-211.871c.001-9.126-4.604-17.774-12.316-23.13z" fill="#f06520" data-original="#000000" style="" class=""/><path d="m245.425 104.149 18.351 7.065 7.55 18.943c2.43 6.12 8.246 10.061 14.837 10.061h.094c6.627-.037 12.442-4.057 14.81-10.227l7.066-18.351 18.942-7.551c6.149-2.441 10.098-8.304 10.061-14.939-.038-6.623-4.057-12.434-10.228-14.802l-18.351-7.064-7.551-18.943c-2.43-6.12-8.248-10.06-14.844-10.06-.031 0-.063 0-.095 0-6.622.038-12.434 4.057-14.801 10.227l-7.065 18.35-18.943 7.551c-6.149 2.441-10.098 8.304-10.06 14.938.038 6.621 4.057 12.434 10.227 14.802zm30.059-20.601c2.547-1.015 4.555-3.047 5.54-5.606l5.205-13.52 5.638 14.143c1.015 2.547 3.047 4.556 5.606 5.541l13.52 5.205-14.143 5.638c-2.547 1.016-4.555 3.047-5.54 5.606l-5.205 13.52-5.638-14.143c-1.015-2.547-3.047-4.556-5.606-5.541l-13.52-5.205z" fill="#f06520" data-original="#000000" style="" class=""/><path d="m117.287 388.775-18.351-7.065-7.551-18.943c-2.43-6.12-8.248-10.06-14.844-10.06-.031 0-.063 0-.095 0-6.622.038-12.434 4.057-14.801 10.227l-7.066 18.351-18.942 7.55c-6.149 2.441-10.098 8.304-10.06 14.938.037 6.623 4.056 12.435 10.227 14.803l18.351 7.065 7.55 18.942c2.43 6.12 8.246 10.061 14.837 10.061h.094c6.626-.037 12.442-4.056 14.81-10.227l7.066-18.351 18.942-7.551c6.15-2.442 10.098-8.305 10.061-14.94-.038-6.621-4.057-12.432-10.228-14.8zm-30.059 20.6c-2.547 1.016-4.555 3.047-5.54 5.606l-5.205 13.52-5.638-14.143c-1.015-2.547-3.047-4.556-5.606-5.541l-13.52-5.205 14.143-5.638c2.547-1.015 4.555-3.047 5.54-5.606l5.205-13.52 5.638 14.143c1.015 2.547 3.047 4.556 5.606 5.541l13.52 5.205z" fill="#f06520" data-original="#000000" style="" class=""/><path d="m275.409 335.672c-5.434 0-9.841 4.409-9.841 9.844s4.407 9.841 9.841 9.841 9.841-4.406 9.841-9.841v-.007c.001-5.435-4.405-9.837-9.841-9.837z" fill="#f06520" data-original="#000000" style="" class=""/></g></g></g></g></svg>
