<?xml version="1.0"?>
<svg xmlns="http://www.w3.org/2000/svg" xmlns:xlink="http://www.w3.org/1999/xlink" xmlns:svgjs="http://svgjs.com/svgjs" version="1.1" width="512" height="512" x="0" y="0" viewBox="0 0 512 512" style="enable-background:new 0 0 512 512" xml:space="preserve" class=""><g><g xmlns="http://www.w3.org/2000/svg"><path d="m166.7 338.223c.199-4.558 4.139-96.452 2.941-180.537 16.413-9.041 83.336-44.836 158.776-70.316.57 49.729-.588 101.53-1.63 135.558-36.359-45.595-110.65-20.196-110.941 38.856 3.405 82.6 120.935 82.73 124.549.169.262-5.998 7.008-163.385-.021-255.026-.176-2.29-1.392-4.374-3.299-5.653-1.907-1.281-4.297-1.617-6.481-.911-37.705 12.159-77.932 28.412-119.562 48.307-3.737 1.786-5.318 6.264-3.532 10.001 1.785 3.737 6.263 5.32 10.001 3.533 37.685-18.01 74.165-32.979 108.587-44.563 1.057 16.601 1.717 34.984 2.088 53.994-70.305 23.258-134.05 55.851-158.849 69.154-.437-18.697-1.168-36.665-2.296-52.8 4.234-2.334 11.591-6.321 21.357-11.348 3.683-1.896 5.132-6.418 3.235-10.101-1.896-3.683-6.417-5.131-10.101-3.236-16.19 8.334-25.648 13.729-26.043 13.954-2.516 1.438-3.978 4.196-3.757 7.085 4.927 64.243 3.005 161.443 1.37 214.854-18.906-24.744-57.269-31.252-83.494-12.832-3.431 2.321-4.331 6.984-2.01 10.415 2.32 3.431 6.982 4.33 10.414 2.01 30.82-21.236 74.026 1.785 73.698 39.263 0 26.104-21.208 47.341-47.275 47.341-33.375.381-56.882-35.198-43.561-65.77 1.611-3.816-.175-8.215-3.991-9.827-3.812-1.612-8.215.174-9.827 3.99-17.55 40.275 13.418 87.106 57.38 86.606 34.282.002 62.183-27.872 62.274-62.17zm111.422-29.098c-26.067 0-47.275-21.237-47.275-47.341 2.598-62.804 91.962-62.787 94.55 0-.001 26.103-21.208 47.341-47.275 47.341z" fill="#f06520" data-original="#000000" style="" class=""/><path d="m468.492 150.536c-.21-2.406-1.564-4.563-3.641-5.797-2.078-1.234-4.62-1.392-6.832-.426-52.354 22.854-90.083 44.335-90.458 44.55-2.516 1.438-3.978 4.196-3.756 7.085 4.927 64.243 3.004 161.442 1.369 214.854-11.421-14.306-28.993-23.486-48.666-23.486-4.143 0-7.5 3.358-7.5 7.5s3.357 7.5 7.5 7.5c62.709 2.594 62.703 92.092 0 94.683-45.605-.139-64.518-58.828-27.745-85.677 3.349-2.436 4.09-7.127 1.654-10.476-2.438-3.352-7.127-4.09-10.477-1.654-48.428 35.373-23.476 112.639 36.57 112.808 34.281 0 62.181-27.874 62.273-62.172.199-4.558 4.139-96.455 2.941-180.541 5.503-3.037 16.677-9.085 31.835-16.682 8.722-4.758 2.303-17.552-6.723-13.409-10.625 5.326-19.247 9.858-25.428 13.181-.437-18.69-1.168-36.651-2.296-52.78 10.147-5.588 38.262-20.676 75.187-37.234 1.35 24.001.21 45.636-.409 54.583-5.784 2.574-11.622 5.231-17.408 7.924-8.858 4.503-2.811 17.479 6.33 13.599 7.002-3.259 14.082-6.465 21.045-9.531 2.549-1.04 4.368-3.425 4.632-6.247.132-1.423 3.215-35.281.003-72.155z" fill="#f06520" data-original="#000000" style="" class=""/><path d="m68.782 213.051h16.174v16.2c.344 9.931 14.66 9.923 15 0v-16.2h16.174c9.931-.344 9.923-14.66 0-15h-16.174v-16.201c-.344-9.931-14.66-9.923-15 0v16.201h-16.174c-9.931.344-9.923 14.66 0 15z" fill="#f06520" data-original="#000000" style="" class=""/><path d="m431.86 313.337c-12.406 0-22.5 10.101-22.5 22.517 1.236 29.871 43.768 29.863 45 0 0-12.416-10.094-22.517-22.5-22.517zm0 30.033c-4.136 0-7.5-3.372-7.5-7.517.352-9.948 14.649-9.946 15 0 0 4.145-3.364 7.517-7.5 7.517z" fill="#f06520" data-original="#000000" style="" class=""/><path d="m220.333 348.345c-12.406 0-22.5 10.101-22.5 22.517 1.236 29.871 43.768 29.863 45 0 0-12.416-10.094-22.517-22.5-22.517zm0 30.034c-4.136 0-7.5-3.372-7.5-7.517.352-9.949 14.649-9.947 15 0 0 4.145-3.364 7.517-7.5 7.517z" fill="#f06520" data-original="#000000" style="" class=""/><path d="m104.426 78.998c12.406 0 22.5-10.101 22.5-22.517-1.236-29.871-43.768-29.863-45 0 0 12.416 10.093 22.517 22.5 22.517zm0-30.033c4.136 0 7.5 3.372 7.5 7.517-.352 9.948-14.649 9.946-15 0 0-4.145 3.364-7.517 7.5-7.517z" fill="#f06520" data-original="#000000" style="" class=""/><path d="m172.614 442.158h-5.913v-5.928c-.344-9.931-14.66-9.923-15 0v5.928h-5.913c-9.931.344-9.923 14.66 0 15h5.913v5.928c.344 9.931 14.66 9.923 15 0v-5.928h5.913c9.931-.344 9.923-14.659 0-15z" fill="#f06520" data-original="#000000" style="" class=""/><path d="m382.005 97.967h9.928v9.947c.344 9.931 14.66 9.923 15 0v-9.947h9.928c9.931-.344 9.923-14.66 0-15h-9.928v-9.947c-.344-9.931-14.66-9.923-15 0v9.947h-9.928c-9.931.344-9.924 14.66 0 15z" fill="#f06520" data-original="#000000" style="" class=""/></g></g></svg>
